<svg width="26" height="23" viewBox="0 0 26 23" fill="none" xmlns="http://www.w3.org/2000/svg">
<path d="M26.0003 13.4614L25.849 14.0874C24.8346 16.93 23.1701 19.0281 20.861 20.4324C19.4542 21.2897 18.0083 21.8086 16.5511 21.9835C15.0659 22.1301 13.037 21.9496 10.5654 21.4871L10.7168 20.8611C11.7312 18.0185 13.3957 15.9204 15.7048 14.516C17.1115 13.6588 18.5575 13.1399 20.0147 12.965C21.4999 12.8184 23.5063 12.9932 26.0003 13.4614Z" fill="white"/>
<path d="M1.42425 2.68884L2.04636 2.84112C4.87105 3.86197 6.95594 5.53707 8.35147 7.86077C9.20336 9.27642 9.71898 10.7315 9.89272 12.198C10.0384 13.6926 9.85909 15.7343 9.39952 18.2215L8.77741 18.0693C5.95272 17.0484 3.86783 15.3733 2.4723 13.0496C1.62041 11.634 1.10479 10.1788 0.931047 8.71241C0.785329 7.2178 0.959073 5.19866 1.42425 2.68884Z" fill="white"/>
<path d="M17.4811 0.929169L17.6716 1.33525C18.3666 3.32619 18.3834 5.19868 17.7557 6.98658C17.369 8.07511 16.8142 9.00008 16.108 9.73892C15.3682 10.4778 14.1912 11.2787 12.6556 12.1247L12.465 11.7186C11.7701 9.72764 11.7533 7.85515 12.381 6.06725C12.7677 4.97872 13.3225 4.05375 14.0287 3.31491C14.7685 2.57606 15.9342 1.78082 17.4811 0.929169Z" fill="white"/>
</svg>
