<svg width="143" height="28" viewBox="0 0 143 28" fill="none" xmlns="http://www.w3.org/2000/svg">
<path d="M143 13.4614L142.849 14.0874C141.835 16.93 140.17 19.0281 137.861 20.4324C136.454 21.2897 135.008 21.8086 133.551 21.9835C132.066 22.1301 130.037 21.9496 127.565 21.4871L127.717 20.8611C128.731 18.0185 130.396 15.9204 132.705 14.516C134.112 13.6588 135.558 13.1399 137.015 12.965C138.5 12.8184 140.506 12.9932 143 13.4614Z" fill="white"/>
<path d="M118.424 2.68884L119.046 2.84112C121.871 3.86197 123.956 5.53707 125.351 7.86077C126.203 9.27642 126.719 10.7315 126.893 12.198C127.038 13.6926 126.859 15.7343 126.4 18.2215L125.777 18.0693C122.953 17.0484 120.868 15.3733 119.472 13.0496C118.62 11.634 118.105 10.1788 117.931 8.71241C117.785 7.2178 117.959 5.19866 118.424 2.68884Z" fill="white"/>
<path d="M134.481 0.929169L134.672 1.33525C135.367 3.32619 135.383 5.19868 134.756 6.98658C134.369 8.07511 133.814 9.00008 133.108 9.73892C132.368 10.4778 131.191 11.2787 129.656 12.1247L129.465 11.7186C128.77 9.72764 128.753 7.85515 129.381 6.06725C129.768 4.97872 130.323 4.05375 131.029 3.31491C131.768 2.57606 132.934 1.78082 134.481 0.929169Z" fill="white"/>
<path d="M80.9242 1.48192C80.5095 1.10967 80.0219 0.923553 79.4502 0.923553C78.8337 0.923553 78.3181 1.10967 77.8978 1.48192C77.4886 1.85416 77.2812 2.36177 77.2812 3.00473C77.2812 3.6477 77.4886 4.14966 77.8978 4.56702C78.3181 4.98439 78.8337 5.18743 79.4502 5.18743C80.0219 5.18743 80.5095 4.98439 80.9242 4.56702C81.3389 4.14966 81.5407 3.63078 81.5407 3.00473C81.5407 2.37869 81.3389 1.8598 80.9242 1.48192ZM85.7385 1.48192C85.3182 1.10967 84.7969 0.923553 84.1804 0.923553C83.5639 0.923553 83.1044 1.10967 82.7065 1.48192C82.3085 1.85416 82.118 2.36177 82.118 3.00473C82.118 3.6477 82.3141 4.14966 82.7065 4.56702C83.1044 4.98439 83.5976 5.18743 84.1804 5.18743C84.7969 5.18743 85.3182 4.98439 85.7385 4.56702C86.1645 4.14966 86.3774 3.63078 86.3774 3.00473C86.3774 2.37869 86.1645 1.8598 85.7385 1.48192Z" fill="white"/>
<path d="M106.19 1.48192C105.764 1.10967 105.231 0.923553 104.592 0.923553C103.953 0.923553 103.471 1.10967 103.107 1.48192C102.732 1.85416 102.552 2.36177 102.552 3.00473C102.552 3.6477 102.732 4.14966 103.107 4.56702C103.471 4.98439 103.976 5.18743 104.592 5.18743C105.209 5.18743 105.758 4.98439 106.19 4.56702C106.604 4.14966 106.817 3.63078 106.817 3.00473C106.817 2.37869 106.604 1.8598 106.19 1.48192Z" fill="white"/>
<path d="M104.777 7.50549C104.363 7.68033 104.032 7.88901 103.763 8.15409C103.219 8.70682 102.945 9.46822 102.945 10.444V14.6063C102.945 15.176 102.849 15.6948 102.67 16.1517C102.485 16.6085 102.171 17.0936 101.723 17.5955C101.325 17.9734 100.899 18.2667 100.423 18.4641C99.9461 18.6615 99.4585 18.763 98.9653 18.763H83.8499V7.17273C83.1885 7.18965 82.6785 7.30245 82.3086 7.51113C81.9387 7.72545 81.608 7.97925 81.3166 8.26125C81.0588 8.55454 80.8458 8.88166 80.6777 9.23134C80.5152 9.58103 80.4367 9.97583 80.4367 10.427V18.763H67.5238V18.8081C67.3333 18.7799 67.1427 18.763 66.941 18.763H58.2539C57.7495 18.763 57.2563 18.6502 56.7575 18.4246C56.2531 18.199 55.8103 17.9001 55.4292 17.5166V17.5448C55.1042 17.1161 54.8183 16.6367 54.5773 16.1122C54.3419 15.5933 54.2242 15.0744 54.2242 14.5555C54.2242 13.9803 54.3307 13.4614 54.5437 12.9933C54.7623 12.5308 55.0593 12.0796 55.4348 11.6396C55.8383 11.2843 56.2643 10.991 56.7295 10.7711C57.1946 10.5568 57.7047 10.444 58.2539 10.444H59.5373C60.0418 10.444 60.4677 10.3763 60.8264 10.2353C61.1851 10.0999 61.5214 9.88559 61.8128 9.58103C62.1042 9.28774 62.3172 8.97754 62.4685 8.6335C62.6198 8.29509 62.7207 7.81569 62.7712 7.18964H58.2483C57.1778 7.18964 56.2195 7.37013 55.3788 7.73109C54.5381 8.09769 53.7535 8.61658 53.0249 9.27082C52.2851 9.99839 51.7414 10.7993 51.3827 11.6848C51.0353 12.5702 50.8559 13.5234 50.8559 14.5443C50.8559 15.2718 50.9568 15.9768 51.1529 16.648C51.3491 17.3192 51.6686 18.0242 52.1225 18.7517H34.4682V0.923553C33.8349 0.963034 33.3417 1.04199 32.983 1.17172C32.6299 1.30144 32.3049 1.51576 32.0134 1.80904C31.4249 2.39561 31.1447 3.18521 31.1447 4.17786V18.7574H13.5689C14.0565 18.0298 14.3871 17.3305 14.5665 16.6762C14.7458 16.022 14.8355 15.3226 14.8355 14.5781C14.8355 13.5065 14.6617 12.5308 14.3143 11.6622C13.9612 10.7993 13.3951 9.99839 12.6161 9.27082H12.6441C11.9828 8.61094 11.2093 8.09769 10.3519 7.73109C9.50556 7.37013 8.53037 7.18964 7.4543 7.18964C6.37823 7.18964 5.38062 7.37013 4.47829 7.73109C3.58156 8.09769 2.80253 8.61658 2.1524 9.27082C1.4126 10.0097 0.868959 10.8218 0.527082 11.6848C0.1796 12.5533 0.00585938 13.5234 0.00585938 14.5725V27.0764C0.678405 27.037 1.20523 26.9242 1.56953 26.738C1.93943 26.5463 2.26449 26.3038 2.54472 26.0048C2.80813 25.7285 3.00429 25.3957 3.15561 25.0122C3.29573 24.623 3.37419 24.2057 3.37419 23.777V21.9553H98.9653C101.101 21.9553 102.827 21.2841 104.161 19.9531C104.884 19.2593 105.439 18.4472 105.825 17.5222C106.212 16.5972 106.408 15.6159 106.408 14.595V7.13889C105.736 7.21221 105.198 7.33629 104.783 7.50549H104.777ZM11.1141 16.1066C10.8899 16.6142 10.6097 17.0936 10.2846 17.5673C9.89228 17.9283 9.44952 18.2216 8.95632 18.4303C8.46312 18.6502 7.96431 18.7574 7.4487 18.7574H3.36859V14.5725C3.36859 14.0197 3.47507 13.5065 3.68805 13.044C3.90102 12.5702 4.22048 12.119 4.62961 11.6848C5.04435 11.29 5.48711 10.9854 5.95789 10.7654C6.43427 10.5511 6.93308 10.4383 7.4543 10.4383C8.46872 10.4383 9.41029 10.8782 10.2902 11.7694V11.7299C10.6377 12.136 10.9179 12.559 11.1309 13.0215C11.3439 13.4839 11.4616 14.0028 11.4616 14.5725C11.4616 15.0914 11.3439 15.599 11.1197 16.1009L11.1141 16.1066Z" fill="white"/>
</svg>
